<svg width="19" height="20" viewBox="0 0 19 20" fill="none" xmlns="http://www.w3.org/2000/svg">
<path d="M8.128 0.371999C9.82667 0.371999 11.3387 0.586666 12.664 1.016C13.9893 1.42667 15.1 2.04267 15.996 2.864C16.9107 3.66667 17.592 4.64667 18.04 5.804C18.5067 6.94267 18.7307 8.22133 18.712 9.64C18.6933 10.928 18.4507 12.188 17.984 13.42C17.536 14.652 16.8547 15.7627 15.94 16.752C15.0253 17.7413 13.868 18.5347 12.468 19.132C11.0867 19.7107 9.45333 20 7.568 20H0.0640001L0.148 18.768C0.764 18.7307 1.212 18.6 1.492 18.376C1.772 18.152 1.95867 17.816 2.052 17.368C2.164 16.92 2.22933 16.3507 2.248 15.66L2.892 4.012C2.92933 3.60133 2.95733 3.20933 2.976 2.836C3.01333 2.444 3.05067 2.108 3.088 1.828C2.752 1.84667 2.39733 1.86533 2.024 1.884C1.65067 1.90267 1.31467 1.92133 1.016 1.94L1.1 0.399999L8.128 0.371999ZM7.96 1.688C7.344 1.688 6.87733 1.78133 6.56 1.968C6.26133 2.136 6.056 2.43467 5.944 2.864C5.832 3.29333 5.75733 3.872 5.72 4.6L5.104 16.276C5.08533 16.78 5.048 17.228 4.992 17.62C4.95467 18.012 4.91733 18.3293 4.88 18.572C5.216 18.572 5.552 18.5813 5.888 18.6C6.224 18.6 6.55067 18.6 6.868 18.6C7.204 18.6 7.50267 18.6 7.764 18.6C9.35067 18.6 10.7133 18.1987 11.852 17.396C13.0093 16.5933 13.9053 15.5293 14.54 14.204C15.1747 12.86 15.5013 11.3853 15.52 9.78C15.576 7.22267 14.9693 5.244 13.7 3.844C12.4307 2.42533 10.5173 1.70667 7.96 1.688Z" fill="black"/>
</svg>
