<svg width="94" height="21" viewBox="0 0 94 21" fill="none" xmlns="http://www.w3.org/2000/svg">
<path d="M8.128 0.371999C9.82667 0.371999 11.3387 0.586666 12.664 1.016C13.9893 1.42667 15.1 2.04267 15.996 2.864C16.9107 3.66667 17.592 4.64667 18.04 5.804C18.5067 6.94267 18.7307 8.22133 18.712 9.64C18.6933 10.928 18.4507 12.188 17.984 13.42C17.536 14.652 16.8547 15.7627 15.94 16.752C15.0253 17.7413 13.868 18.5347 12.468 19.132C11.0867 19.7107 9.45333 20 7.568 20H0.0640001L0.148 18.768C0.764 18.7307 1.212 18.6 1.492 18.376C1.772 18.152 1.95867 17.816 2.052 17.368C2.164 16.92 2.22933 16.3507 2.248 15.66L2.892 4.012C2.92933 3.60133 2.95733 3.20933 2.976 2.836C3.01333 2.444 3.05067 2.108 3.088 1.828C2.752 1.84667 2.39733 1.86533 2.024 1.884C1.65067 1.90267 1.31467 1.92133 1.016 1.94L1.1 0.399999L8.128 0.371999ZM7.96 1.688C7.344 1.688 6.87733 1.78133 6.56 1.968C6.26133 2.136 6.056 2.43467 5.944 2.864C5.832 3.29333 5.75733 3.872 5.72 4.6L5.104 16.276C5.08533 16.78 5.048 17.228 4.992 17.62C4.95467 18.012 4.91733 18.3293 4.88 18.572C5.216 18.572 5.552 18.5813 5.888 18.6C6.224 18.6 6.55067 18.6 6.868 18.6C7.204 18.6 7.50267 18.6 7.764 18.6C9.35067 18.6 10.7133 18.1987 11.852 17.396C13.0093 16.5933 13.9053 15.5293 14.54 14.204C15.1747 12.86 15.5013 11.3853 15.52 9.78C15.576 7.22267 14.9693 5.244 13.7 3.844C12.4307 2.42533 10.5173 1.70667 7.96 1.688ZM25.6879 20.308C24.9226 20.308 24.3066 20.14 23.8399 19.804C23.3919 19.4493 23.0559 18.9827 22.8319 18.404C22.6266 17.8067 22.5239 17.1533 22.5239 16.444C22.5239 15.5107 22.5893 14.5587 22.7199 13.588C22.8693 12.5987 23.0093 11.6653 23.1399 10.788C23.2893 9.91067 23.3639 9.18267 23.3639 8.604C23.3639 8.268 23.3173 7.99733 23.2239 7.792C23.1493 7.58667 22.9813 7.484 22.7199 7.484C22.4586 7.484 22.1693 7.68 21.8519 8.072C21.5346 8.44533 21.2359 9.09867 20.9559 10.032L19.9479 9.78C20.0039 9.42533 20.1253 9.024 20.3119 8.576C20.4986 8.10933 20.7413 7.66133 21.0399 7.232C21.3573 6.784 21.7306 6.42 22.1599 6.14C22.6079 5.84133 23.1306 5.692 23.7279 5.692C24.5679 5.692 25.1746 5.944 25.5479 6.448C25.9213 6.93333 26.1079 7.63333 26.1079 8.548C26.1079 9.08933 26.0613 9.73333 25.9679 10.48C25.8933 11.2267 25.7999 12.0013 25.6879 12.804C25.5759 13.588 25.4733 14.3533 25.3799 15.1C25.3053 15.828 25.2679 16.4627 25.2679 17.004C25.2679 17.228 25.2959 17.4707 25.3519 17.732C25.4079 17.9747 25.5199 18.18 25.6879 18.348C25.8559 18.4973 26.0893 18.572 26.3879 18.572C26.8546 18.572 27.3119 18.348 27.7599 17.9C28.2079 17.4333 28.6279 16.808 29.0199 16.024C29.4306 15.24 29.7946 14.372 30.1119 13.42C30.4479 12.468 30.7093 11.4973 30.8959 10.508C31.0826 9.5 31.1759 8.548 31.1759 7.652C31.1759 7.39067 31.1666 7.11067 31.1479 6.812C31.1479 6.51333 31.1293 6.24267 31.0919 6H33.8639C33.9013 6.224 33.9199 6.40133 33.9199 6.532C33.9199 6.644 33.9199 6.77467 33.9199 6.924C33.9199 7.27867 33.9013 7.69867 33.8639 8.184C33.8266 8.65067 33.7706 9.22933 33.6959 9.92C33.6213 10.6107 33.5186 11.4507 33.3879 12.44C33.2759 13.336 33.1826 14.064 33.1079 14.624C33.0519 15.184 32.9959 15.6413 32.9399 15.996C32.9026 16.332 32.8746 16.612 32.8559 16.836C32.8559 17.0413 32.8559 17.2373 32.8559 17.424C32.8559 17.7413 32.9026 18.0027 32.9959 18.208C33.0893 18.3947 33.2479 18.488 33.4719 18.488C33.7519 18.488 34.0599 18.3013 34.3959 17.928C34.7319 17.5547 35.0306 16.9013 35.2919 15.968L36.3279 16.22C36.2533 16.5747 36.1319 16.9853 35.9639 17.452C35.7959 17.9 35.5626 18.348 35.2639 18.796C34.9653 19.2253 34.6013 19.5893 34.1719 19.888C33.7426 20.168 33.2386 20.308 32.6599 20.308C31.9506 20.308 31.3999 20.0933 31.0079 19.664C30.6159 19.2347 30.4199 18.6093 30.4199 17.788C30.4199 17.3027 30.4573 16.808 30.5319 16.304C30.6253 15.7813 30.7186 15.24 30.8119 14.68H30.7559C30.1773 16.1733 29.6079 17.3307 29.0479 18.152C28.5066 18.9733 27.9559 19.5427 27.3959 19.86C26.8546 20.1587 26.2853 20.308 25.6879 20.308ZM44.2163 5.692C45.0376 5.692 45.7749 5.84133 46.4283 6.14C47.0816 6.42 47.5949 6.812 47.9683 7.316C48.3416 7.80133 48.5283 8.36133 48.5283 8.996C48.5283 9.46267 48.4069 9.836 48.1643 10.116C47.9216 10.396 47.5856 10.5453 47.1563 10.564C46.6523 10.5827 46.2976 10.4333 46.0923 10.116C45.8869 9.78 45.7843 9.49067 45.7843 9.248C45.7843 9.08 45.8029 8.90267 45.8403 8.716C45.8963 8.51067 45.9896 8.324 46.1203 8.156C46.0269 7.74533 45.7936 7.44667 45.4203 7.26C45.0656 7.05467 44.6549 6.952 44.1883 6.952C43.4603 6.952 42.8443 7.16667 42.3403 7.596C41.8549 8.00667 41.4723 8.548 41.1923 9.22C40.9123 9.892 40.7069 10.6107 40.5763 11.376C40.4643 12.1227 40.3989 12.832 40.3803 13.504C40.3803 14.7173 40.5109 15.6973 40.7723 16.444C41.0336 17.172 41.3976 17.704 41.8643 18.04C42.3496 18.3573 42.8723 18.5253 43.4323 18.544C43.8803 18.544 44.3469 18.4507 44.8323 18.264C45.3363 18.0773 45.8309 17.7507 46.3163 17.284C46.8016 16.7987 47.2216 16.108 47.5763 15.212L48.7523 15.8C48.2669 16.92 47.7069 17.8067 47.0723 18.46C46.4563 19.1133 45.7936 19.5893 45.0843 19.888C44.3749 20.168 43.6469 20.308 42.9003 20.308C41.2576 20.308 39.9416 19.8133 38.9523 18.824C37.9629 17.816 37.4683 16.2667 37.4683 14.176C37.4683 13.28 37.5989 12.3373 37.8603 11.348C38.1403 10.3587 38.5509 9.43467 39.0923 8.576C39.6523 7.71733 40.3523 7.02667 41.1923 6.504C42.0509 5.96267 43.0589 5.692 44.2163 5.692ZM57.62 5.692C58.628 5.692 59.5426 5.93467 60.364 6.42C61.1853 6.88667 61.8293 7.58667 62.296 8.52C62.7813 9.43467 63.024 10.5453 63.024 11.852C63.024 13.3453 62.744 14.736 62.184 16.024C61.6426 17.312 60.8586 18.348 59.832 19.132C58.8053 19.916 57.564 20.308 56.108 20.308C54.876 20.308 53.8493 20.028 53.028 19.468C52.2253 18.908 51.628 18.152 51.236 17.2C50.844 16.2293 50.648 15.1653 50.648 14.008C50.648 12.496 50.928 11.1147 51.488 9.864C52.048 8.59467 52.8506 7.58667 53.896 6.84C54.9413 6.07467 56.1826 5.692 57.62 5.692ZM57.2 7.008C56.4533 6.98933 55.8093 7.26 55.268 7.82C54.7453 8.36133 54.3346 9.09867 54.036 10.032C53.7373 10.9653 53.5786 12.0013 53.56 13.14C53.56 13.7373 53.5973 14.3813 53.672 15.072C53.7653 15.744 53.9146 16.3787 54.12 16.976C54.344 17.5547 54.6426 18.0307 55.016 18.404C55.3893 18.7773 55.8653 18.9733 56.444 18.992C57.0973 18.992 57.648 18.796 58.096 18.404C58.5626 17.9933 58.936 17.4707 59.216 16.836C59.5146 16.1827 59.7293 15.492 59.86 14.764C60.0093 14.036 60.0933 13.3547 60.112 12.72C60.1306 12.104 60.1026 11.4693 60.028 10.816C59.9533 10.1627 59.804 9.54667 59.58 8.968C59.3746 8.38933 59.076 7.92267 58.684 7.568C58.3106 7.19467 57.816 7.008 57.2 7.008ZM76.0035 10.004L75.8915 12.104L65.8395 12.216L65.9515 10.004H76.0035ZM86.1332 0.343999C88.3172 0.343999 89.9972 0.745333 91.1732 1.548C92.3678 2.332 92.8905 3.564 92.7412 5.244C92.7038 5.82267 92.5078 6.40133 92.1532 6.98C91.8172 7.54 91.3225 8.044 90.6692 8.492C90.0158 8.92133 89.1852 9.23867 88.1772 9.444V9.5C90.1558 9.59333 91.6025 10.116 92.5172 11.068C93.4505 12.0013 93.8705 13.14 93.7772 14.484C93.7212 15.6413 93.3852 16.64 92.7692 17.48C92.1718 18.3013 91.3598 18.9267 90.3332 19.356C89.3252 19.7853 88.1865 20 86.9172 20H78.3492L78.4332 18.768C79.0492 18.7493 79.4972 18.628 79.7772 18.404C80.0572 18.1613 80.2438 17.8067 80.3372 17.34C80.4492 16.8733 80.5238 16.2853 80.5612 15.576L81.1492 4.152C81.1678 3.648 81.1958 3.2 81.2332 2.808C81.2892 2.39733 81.3358 2.07067 81.3732 1.828C81.0372 1.84667 80.6825 1.86533 80.3092 1.884C79.9358 1.90267 79.5998 1.92133 79.3012 1.94L79.3852 0.399999C80.5052 0.399999 81.6158 0.390665 82.7172 0.371999C83.8185 0.353333 84.9572 0.343999 86.1332 0.343999ZM86.3852 10.508C85.8438 10.508 85.3678 10.5173 84.9572 10.536C84.5465 10.536 84.1265 10.5453 83.6972 10.564L83.3892 16.304C83.3705 16.808 83.3425 17.256 83.3052 17.648C83.2678 18.0213 83.2305 18.3293 83.1932 18.572C83.4918 18.5907 83.8278 18.6 84.2012 18.6C84.5932 18.6 84.9572 18.6 85.2932 18.6C85.6478 18.6 85.9092 18.6 86.0772 18.6C87.4212 18.5813 88.4852 18.2267 89.2692 17.536C90.0718 16.8267 90.5105 15.8373 90.5852 14.568C90.6412 13.5413 90.4732 12.7387 90.0812 12.16C89.6892 11.5627 89.1665 11.1427 88.5132 10.9C87.8598 10.6387 87.1505 10.508 86.3852 10.508ZM86.1052 1.66C85.6198 1.66 85.2278 1.73467 84.9292 1.884C84.6305 2.03333 84.4158 2.29467 84.2852 2.668C84.1545 3.02267 84.0705 3.55467 84.0332 4.264L83.7812 9.192C84.0985 9.192 84.4158 9.192 84.7332 9.192C85.0505 9.17333 85.3492 9.15467 85.6292 9.136C86.5998 9.09867 87.3745 8.884 87.9532 8.492C88.5505 8.1 88.9798 7.60533 89.2412 7.008C89.5212 6.392 89.6705 5.748 89.6892 5.076C89.7452 4.14267 89.5865 3.43333 89.2132 2.948C88.8398 2.46267 88.3732 2.12667 87.8132 1.94C87.2532 1.75333 86.6838 1.66 86.1052 1.66Z" fill="black"/>
</svg>
