<svg width="95" height="22" viewBox="0 0 95 22" fill="none" xmlns="http://www.w3.org/2000/svg">
<path d="M8.128 1.372C9.82667 1.372 11.3387 1.58667 12.664 2.016C13.9893 2.42667 15.1 3.04267 15.996 3.864C16.9107 4.66667 17.592 5.64667 18.04 6.804C18.5067 7.94267 18.7307 9.22133 18.712 10.64C18.6933 11.928 18.4507 13.188 17.984 14.42C17.536 15.652 16.8547 16.7627 15.94 17.752C15.0253 18.7413 13.868 19.5347 12.468 20.132C11.0867 20.7107 9.45333 21 7.568 21H0.0640001L0.148 19.768C0.764 19.7307 1.212 19.6 1.492 19.376C1.772 19.152 1.95867 18.816 2.052 18.368C2.164 17.92 2.22933 17.3507 2.248 16.66L2.892 5.012C2.92933 4.60133 2.95733 4.20933 2.976 3.836C3.01333 3.444 3.05067 3.108 3.088 2.828C2.752 2.84667 2.39733 2.86533 2.024 2.884C1.65067 2.90267 1.31467 2.92133 1.016 2.94L1.1 1.4L8.128 1.372ZM7.96 2.688C7.344 2.688 6.87733 2.78133 6.56 2.968C6.26133 3.136 6.056 3.43467 5.944 3.864C5.832 4.29333 5.75733 4.872 5.72 5.6L5.104 17.276C5.08533 17.78 5.048 18.228 4.992 18.62C4.95467 19.012 4.91733 19.3293 4.88 19.572C5.216 19.572 5.552 19.5813 5.888 19.6C6.224 19.6 6.55067 19.6 6.868 19.6C7.204 19.6 7.50267 19.6 7.764 19.6C9.35067 19.6 10.7133 19.1987 11.852 18.396C13.0093 17.5933 13.9053 16.5293 14.54 15.204C15.1747 13.86 15.5013 12.3853 15.52 10.78C15.576 8.22267 14.9693 6.244 13.7 4.844C12.4307 3.42533 10.5173 2.70667 7.96 2.688ZM25.6879 21.308C24.9226 21.308 24.3066 21.14 23.8399 20.804C23.3919 20.4493 23.0559 19.9827 22.8319 19.404C22.6266 18.8067 22.5239 18.1533 22.5239 17.444C22.5239 16.5107 22.5893 15.5587 22.7199 14.588C22.8693 13.5987 23.0093 12.6653 23.1399 11.788C23.2893 10.9107 23.3639 10.1827 23.3639 9.604C23.3639 9.268 23.3173 8.99733 23.2239 8.792C23.1493 8.58667 22.9813 8.484 22.7199 8.484C22.4586 8.484 22.1693 8.68 21.8519 9.072C21.5346 9.44533 21.2359 10.0987 20.9559 11.032L19.9479 10.78C20.0039 10.4253 20.1253 10.024 20.3119 9.576C20.4986 9.10933 20.7413 8.66133 21.0399 8.232C21.3573 7.784 21.7306 7.42 22.1599 7.14C22.6079 6.84133 23.1306 6.692 23.7279 6.692C24.5679 6.692 25.1746 6.944 25.5479 7.448C25.9213 7.93333 26.1079 8.63333 26.1079 9.548C26.1079 10.0893 26.0613 10.7333 25.9679 11.48C25.8933 12.2267 25.7999 13.0013 25.6879 13.804C25.5759 14.588 25.4733 15.3533 25.3799 16.1C25.3053 16.828 25.2679 17.4627 25.2679 18.004C25.2679 18.228 25.2959 18.4707 25.3519 18.732C25.4079 18.9747 25.5199 19.18 25.6879 19.348C25.8559 19.4973 26.0893 19.572 26.3879 19.572C26.8546 19.572 27.3119 19.348 27.7599 18.9C28.2079 18.4333 28.6279 17.808 29.0199 17.024C29.4306 16.24 29.7946 15.372 30.1119 14.42C30.4479 13.468 30.7093 12.4973 30.8959 11.508C31.0826 10.5 31.1759 9.548 31.1759 8.652C31.1759 8.39067 31.1666 8.11067 31.1479 7.812C31.1479 7.51333 31.1293 7.24267 31.0919 7H33.8639C33.9013 7.224 33.9199 7.40133 33.9199 7.532C33.9199 7.644 33.9199 7.77467 33.9199 7.924C33.9199 8.27867 33.9013 8.69867 33.8639 9.184C33.8266 9.65067 33.7706 10.2293 33.6959 10.92C33.6213 11.6107 33.5186 12.4507 33.3879 13.44C33.2759 14.336 33.1826 15.064 33.1079 15.624C33.0519 16.184 32.9959 16.6413 32.9399 16.996C32.9026 17.332 32.8746 17.612 32.8559 17.836C32.8559 18.0413 32.8559 18.2373 32.8559 18.424C32.8559 18.7413 32.9026 19.0027 32.9959 19.208C33.0893 19.3947 33.2479 19.488 33.4719 19.488C33.7519 19.488 34.0599 19.3013 34.3959 18.928C34.7319 18.5547 35.0306 17.9013 35.2919 16.968L36.3279 17.22C36.2533 17.5747 36.1319 17.9853 35.9639 18.452C35.7959 18.9 35.5626 19.348 35.2639 19.796C34.9653 20.2253 34.6013 20.5893 34.1719 20.888C33.7426 21.168 33.2386 21.308 32.6599 21.308C31.9506 21.308 31.3999 21.0933 31.0079 20.664C30.6159 20.2347 30.4199 19.6093 30.4199 18.788C30.4199 18.3027 30.4573 17.808 30.5319 17.304C30.6253 16.7813 30.7186 16.24 30.8119 15.68H30.7559C30.1773 17.1733 29.6079 18.3307 29.0479 19.152C28.5066 19.9733 27.9559 20.5427 27.3959 20.86C26.8546 21.1587 26.2853 21.308 25.6879 21.308ZM44.2163 6.692C45.0376 6.692 45.7749 6.84133 46.4283 7.14C47.0816 7.42 47.5949 7.812 47.9683 8.316C48.3416 8.80133 48.5283 9.36133 48.5283 9.996C48.5283 10.4627 48.4069 10.836 48.1643 11.116C47.9216 11.396 47.5856 11.5453 47.1563 11.564C46.6523 11.5827 46.2976 11.4333 46.0923 11.116C45.8869 10.78 45.7843 10.4907 45.7843 10.248C45.7843 10.08 45.8029 9.90267 45.8403 9.716C45.8963 9.51067 45.9896 9.324 46.1203 9.156C46.0269 8.74533 45.7936 8.44667 45.4203 8.26C45.0656 8.05467 44.6549 7.952 44.1883 7.952C43.4603 7.952 42.8443 8.16667 42.3403 8.596C41.8549 9.00667 41.4723 9.548 41.1923 10.22C40.9123 10.892 40.7069 11.6107 40.5763 12.376C40.4643 13.1227 40.3989 13.832 40.3803 14.504C40.3803 15.7173 40.5109 16.6973 40.7723 17.444C41.0336 18.172 41.3976 18.704 41.8643 19.04C42.3496 19.3573 42.8723 19.5253 43.4323 19.544C43.8803 19.544 44.3469 19.4507 44.8323 19.264C45.3363 19.0773 45.8309 18.7507 46.3163 18.284C46.8016 17.7987 47.2216 17.108 47.5763 16.212L48.7523 16.8C48.2669 17.92 47.7069 18.8067 47.0723 19.46C46.4563 20.1133 45.7936 20.5893 45.0843 20.888C44.3749 21.168 43.6469 21.308 42.9003 21.308C41.2576 21.308 39.9416 20.8133 38.9523 19.824C37.9629 18.816 37.4683 17.2667 37.4683 15.176C37.4683 14.28 37.5989 13.3373 37.8603 12.348C38.1403 11.3587 38.5509 10.4347 39.0923 9.576C39.6523 8.71733 40.3523 8.02667 41.1923 7.504C42.0509 6.96267 43.0589 6.692 44.2163 6.692ZM57.62 6.692C58.628 6.692 59.5426 6.93467 60.364 7.42C61.1853 7.88667 61.8293 8.58667 62.296 9.52C62.7813 10.4347 63.024 11.5453 63.024 12.852C63.024 14.3453 62.744 15.736 62.184 17.024C61.6426 18.312 60.8586 19.348 59.832 20.132C58.8053 20.916 57.564 21.308 56.108 21.308C54.876 21.308 53.8493 21.028 53.028 20.468C52.2253 19.908 51.628 19.152 51.236 18.2C50.844 17.2293 50.648 16.1653 50.648 15.008C50.648 13.496 50.928 12.1147 51.488 10.864C52.048 9.59467 52.8506 8.58667 53.896 7.84C54.9413 7.07467 56.1826 6.692 57.62 6.692ZM57.2 8.008C56.4533 7.98933 55.8093 8.26 55.268 8.82C54.7453 9.36133 54.3346 10.0987 54.036 11.032C53.7373 11.9653 53.5786 13.0013 53.56 14.14C53.56 14.7373 53.5973 15.3813 53.672 16.072C53.7653 16.744 53.9146 17.3787 54.12 17.976C54.344 18.5547 54.6426 19.0307 55.016 19.404C55.3893 19.7773 55.8653 19.9733 56.444 19.992C57.0973 19.992 57.648 19.796 58.096 19.404C58.5626 18.9933 58.936 18.4707 59.216 17.836C59.5146 17.1827 59.7293 16.492 59.86 15.764C60.0093 15.036 60.0933 14.3547 60.112 13.72C60.1306 13.104 60.1026 12.4693 60.028 11.816C59.9533 11.1627 59.804 10.5467 59.58 9.968C59.3746 9.38933 59.076 8.92267 58.684 8.568C58.3106 8.19467 57.816 8.008 57.2 8.008ZM76.0035 11.004L75.8915 13.104L65.8395 13.216L65.9515 11.004H76.0035ZM86.9517 0.867999L92.2437 16.576C92.3744 16.9307 92.5144 17.416 92.6637 18.032C92.8131 18.6293 92.8784 19.1427 92.8597 19.572L94.5957 19.46L94.5397 21H87.9877L88.0437 19.768C88.6971 19.7493 89.1264 19.6093 89.3317 19.348C89.5557 19.068 89.6491 18.732 89.6117 18.34C89.5931 17.948 89.5277 17.556 89.4157 17.164L88.7157 14.896L81.8837 15.064L80.9597 17.5C80.8104 17.8733 80.6611 18.228 80.5117 18.564C80.3811 18.9 80.2224 19.2267 80.0357 19.544L82.1357 19.432L82.0517 21H76.6477L76.7037 19.74C77.1891 19.7213 77.5904 19.572 77.9077 19.292C78.2437 18.9933 78.5424 18.592 78.8037 18.088C79.0837 17.5653 79.3544 16.9867 79.6157 16.352L85.9157 0.867999H86.9517ZM85.6917 5.124C85.5237 5.572 85.3277 6.076 85.1037 6.636C84.8984 7.196 84.6744 7.79333 84.4317 8.428L82.4437 13.552H88.2957L86.7277 8.652C86.5411 8.05467 86.3544 7.45733 86.1677 6.86C85.9997 6.26267 85.8411 5.684 85.6917 5.124Z" fill="black"/>
</svg>
