<svg width="24" height="16" viewBox="0 0 24 16" fill="none" xmlns="http://www.w3.org/2000/svg">
<path d="M15.75 3V13H3.25V3H15.75ZM17 0.5H2C1.66848 0.5 1.35054 0.631696 1.11612 0.866117C0.881696 1.10054 0.75 1.41848 0.75 1.75V14.25C0.75 14.5815 0.881696 14.8995 1.11612 15.1339C1.35054 15.3683 1.66848 15.5 2 15.5H17C17.3315 15.5 17.6495 15.3683 17.8839 15.1339C18.1183 14.8995 18.25 14.5815 18.25 14.25V9.875L23.25 14.875V1.125L18.25 6.125V1.75C18.25 1.41848 18.1183 1.10054 17.8839 0.866117C17.6495 0.631696 17.3315 0.5 17 0.5Z" fill="#1F9A7B"/>
</svg>
