<svg width="78" height="21" viewBox="0 0 78 21" fill="none" xmlns="http://www.w3.org/2000/svg">
<path d="M19.768 0.399999L19.684 1.632C18.9373 1.66933 18.3307 1.89333 17.864 2.304C17.3973 2.71467 16.9493 3.43333 16.52 4.46C16.3707 4.796 16.212 5.16 16.044 5.552C15.8947 5.92533 15.708 6.37333 15.484 6.896C15.26 7.4 14.9987 8.02533 14.7 8.772C14.4013 9.5 14.028 10.3867 13.58 11.432C13.132 12.4773 12.6 13.728 11.984 15.184C11.3867 16.6213 10.6773 18.3107 9.856 20.252H8.652L3.108 5.3C2.80933 4.516 2.58533 3.844 2.436 3.284C2.30533 2.724 2.23067 2.25733 2.212 1.884C1.932 1.90267 1.66133 1.912 1.4 1.912C1.15733 1.912 0.914667 1.92133 0.672 1.94L0.728 0.399999H7.7L7.644 1.66C6.78533 1.67867 6.216 1.912 5.936 2.36C5.656 2.808 5.67467 3.48 5.992 4.376L8.288 10.844C8.64267 11.796 8.96933 12.692 9.268 13.532C9.58533 14.372 9.84667 15.128 10.052 15.8H10.108C10.3693 15.184 10.6213 14.5587 10.864 13.924C11.1253 13.2893 11.4053 12.5893 11.704 11.824C12.2267 10.5547 12.684 9.45333 13.076 8.52C13.468 7.58667 13.8133 6.756 14.112 6.028C14.4107 5.3 14.6813 4.64667 14.924 4.068C15.1667 3.48933 15.3627 3.02267 15.512 2.668C15.6613 2.31333 15.8107 2.03333 15.96 1.828C15.624 1.84667 15.26 1.86533 14.868 1.884C14.476 1.90267 14.1213 1.92133 13.804 1.94L13.86 0.399999H19.768ZM27.8532 0.399999L27.7972 1.632C27.2186 1.65067 26.7799 1.76267 26.4812 1.968C26.2012 2.15467 26.0052 2.46267 25.8932 2.892C25.7812 3.30267 25.7066 3.85333 25.6692 4.544L25.0532 16.248C25.0346 16.752 25.0066 17.2093 24.9692 17.62C24.9319 18.012 24.8946 18.3293 24.8572 18.572C25.1746 18.5347 25.5199 18.516 25.8932 18.516C26.2852 18.4973 26.6212 18.4787 26.9012 18.46L26.8172 20H20.0412L20.1252 18.768C20.7226 18.7307 21.1612 18.6 21.4412 18.376C21.7399 18.152 21.9359 17.816 22.0292 17.368C22.1226 16.92 22.1879 16.3507 22.2252 15.66L22.8412 4.012C22.8599 3.60133 22.8879 3.20933 22.9252 2.836C22.9626 2.444 22.9999 2.108 23.0372 1.828C22.7199 1.84667 22.3746 1.86533 22.0012 1.884C21.6279 1.90267 21.2919 1.92133 20.9932 1.94L21.0772 0.399999H27.8532ZM48.5063 0.399999L48.4223 1.632C47.6756 1.66933 47.0689 1.89333 46.6023 2.304C46.1356 2.71467 45.6876 3.43333 45.2583 4.46C45.1089 4.796 44.9503 5.16 44.7823 5.552C44.6329 5.92533 44.4463 6.37333 44.2223 6.896C43.9983 7.4 43.7369 8.02533 43.4383 8.772C43.1396 9.5 42.7663 10.3867 42.3183 11.432C41.8703 12.4773 41.3383 13.728 40.7223 15.184C40.1249 16.6213 39.4156 18.3107 38.5943 20.252H37.3903L31.8463 5.3C31.5476 4.516 31.3236 3.844 31.1743 3.284C31.0436 2.724 30.9689 2.25733 30.9503 1.884C30.6703 1.90267 30.3996 1.912 30.1383 1.912C29.8956 1.912 29.6529 1.92133 29.4103 1.94L29.4663 0.399999H36.4383L36.3823 1.66C35.5236 1.67867 34.9543 1.912 34.6743 2.36C34.3943 2.808 34.4129 3.48 34.7303 4.376L37.0263 10.844C37.3809 11.796 37.7076 12.692 38.0063 13.532C38.3236 14.372 38.5849 15.128 38.7903 15.8H38.8463C39.1076 15.184 39.3596 14.5587 39.6023 13.924C39.8636 13.2893 40.1436 12.5893 40.4423 11.824C40.9649 10.5547 41.4223 9.45333 41.8143 8.52C42.2063 7.58667 42.5516 6.756 42.8503 6.028C43.1489 5.3 43.4196 4.64667 43.6623 4.068C43.9049 3.48933 44.1009 3.02267 44.2503 2.668C44.3996 2.31333 44.5489 2.03333 44.6983 1.828C44.3623 1.84667 43.9983 1.86533 43.6063 1.884C43.2143 1.90267 42.8596 1.92133 42.5423 1.94L42.5983 0.399999H48.5063ZM56.5915 0.399999L56.5355 1.632C55.9568 1.65067 55.5182 1.76267 55.2195 1.968C54.9395 2.15467 54.7435 2.46267 54.6315 2.892C54.5195 3.30267 54.4448 3.85333 54.4075 4.544L53.7915 16.248C53.7728 16.752 53.7448 17.2093 53.7075 17.62C53.6702 18.012 53.6328 18.3293 53.5955 18.572C53.9128 18.5347 54.2582 18.516 54.6315 18.516C55.0235 18.4973 55.3595 18.4787 55.6395 18.46L55.5555 20H48.7795L48.8635 18.768C49.4608 18.7307 49.8995 18.6 50.1795 18.376C50.4782 18.152 50.6742 17.816 50.7675 17.368C50.8608 16.92 50.9262 16.3507 50.9635 15.66L51.5795 4.012C51.5982 3.60133 51.6262 3.20933 51.6635 2.836C51.7008 2.444 51.7382 2.108 51.7755 1.828C51.4582 1.84667 51.1128 1.86533 50.7395 1.884C50.3662 1.90267 50.0302 1.92133 49.7315 1.94L49.8155 0.399999H56.5915ZM66.6046 0.371999C68.3032 0.371999 69.8152 0.586666 71.1406 1.016C72.4659 1.42667 73.5766 2.04267 74.4726 2.864C75.3872 3.66667 76.0686 4.64667 76.5166 5.804C76.9832 6.94267 77.2072 8.22133 77.1886 9.64C77.1699 10.928 76.9272 12.188 76.4606 13.42C76.0126 14.652 75.3312 15.7627 74.4166 16.752C73.5019 17.7413 72.3446 18.5347 70.9446 19.132C69.5632 19.7107 67.9299 20 66.0446 20H58.5406L58.6246 18.768C59.2406 18.7307 59.6886 18.6 59.9686 18.376C60.2486 18.152 60.4352 17.816 60.5286 17.368C60.6406 16.92 60.7059 16.3507 60.7246 15.66L61.3686 4.012C61.4059 3.60133 61.4339 3.20933 61.4526 2.836C61.4899 2.444 61.5272 2.108 61.5646 1.828C61.2286 1.84667 60.8739 1.86533 60.5006 1.884C60.1272 1.90267 59.7912 1.92133 59.4926 1.94L59.5766 0.399999L66.6046 0.371999ZM66.4366 1.688C65.8206 1.688 65.3539 1.78133 65.0366 1.968C64.7379 2.136 64.5326 2.43467 64.4206 2.864C64.3086 3.29333 64.2339 3.872 64.1966 4.6L63.5806 16.276C63.5619 16.78 63.5246 17.228 63.4686 17.62C63.4312 18.012 63.3939 18.3293 63.3566 18.572C63.6926 18.572 64.0286 18.5813 64.3646 18.6C64.7006 18.6 65.0272 18.6 65.3446 18.6C65.6806 18.6 65.9792 18.6 66.2406 18.6C67.8272 18.6 69.1899 18.1987 70.3286 17.396C71.4859 16.5933 72.3819 15.5293 73.0166 14.204C73.6512 12.86 73.9779 11.3853 73.9966 9.78C74.0526 7.22267 73.4459 5.244 72.1766 3.844C70.9072 2.42533 68.9939 1.70667 66.4366 1.688Z" fill="black"/>
</svg>
